<mxfile host="Electron" modified="2024-04-23T04:05:46.226Z" agent="Mozilla/5.0 (Windows NT 10.0; Win64; x64) AppleWebKit/537.36 (KHTML, like Gecko) draw.io/22.1.21 Chrome/120.0.6099.109 Electron/28.1.0 Safari/537.36" etag="IzSq2X2yxiKj98t1Mox6" version="22.1.21" type="device">
  <diagram name="Page-1" id="6f7wbPanEzozHGWUEkWh">
    <mxGraphModel dx="2100" dy="1338" grid="1" gridSize="10" guides="1" tooltips="1" connect="1" arrows="1" fold="1" page="1" pageScale="1" pageWidth="2000" pageHeight="1125" background="none" math="0" shadow="0">
      <root>
        <mxCell id="0" />
        <mxCell id="1" parent="0" />
        <mxCell id="QRiMbNRAXF-muY_U-p8k-51" value="start" style="ellipse;whiteSpace=wrap;html=1;fontStyle=0;fontSize=16;rounded=0;container=0;fillColor=#FFCC00;" parent="1" vertex="1">
          <mxGeometry x="932.0100000000001" y="16" width="135.7" height="45.044536666954954" as="geometry" />
        </mxCell>
        <mxCell id="QRiMbNRAXF-muY_U-p8k-55" value="end" style="ellipse;whiteSpace=wrap;html=1;fontStyle=0;fontSize=16;rounded=0;container=0;fillColor=#FFCC00;" parent="1" vertex="1">
          <mxGeometry x="934.96" y="1063.955463333045" width="129.79999999999998" height="45.044536666954954" as="geometry" />
        </mxCell>
        <mxCell id="QRiMbNRAXF-muY_U-p8k-56" value="i = 1;&lt;br style=&quot;font-size: 16px;&quot;&gt;j, key = 0;&lt;br style=&quot;font-size: 16px;&quot;&gt;n = [];" style="whiteSpace=wrap;html=1;fontSize=16;fontStyle=0;rounded=0;container=0;fillColor=#FFCC00;" parent="1" vertex="1">
          <mxGeometry x="931.8600000000001" y="99.9990733339099" width="135.7" height="67.56680500043244" as="geometry" />
        </mxCell>
        <mxCell id="QRiMbNRAXF-muY_U-p8k-57" value="" style="edgeStyle=orthogonalEdgeStyle;rounded=0;orthogonalLoop=1;jettySize=auto;html=1;fontSize=15;strokeWidth=2;strokeColor=default;" parent="1" source="QRiMbNRAXF-muY_U-p8k-51" target="QRiMbNRAXF-muY_U-p8k-56" edge="1">
          <mxGeometry relative="1" as="geometry" />
        </mxCell>
        <mxCell id="QRiMbNRAXF-muY_U-p8k-59" value="" style="edgeStyle=orthogonalEdgeStyle;rounded=0;orthogonalLoop=1;jettySize=auto;html=1;fontSize=15;strokeWidth=2;strokeColor=default;" parent="1" source="QRiMbNRAXF-muY_U-p8k-56" target="QRiMbNRAXF-muY_U-p8k-58" edge="1">
          <mxGeometry relative="1" as="geometry" />
        </mxCell>
        <mxCell id="QRiMbNRAXF-muY_U-p8k-60" value="i &amp;lt; n.len" style="rhombus;whiteSpace=wrap;html=1;fontSize=16;fontStyle=0;rounded=0;container=0;fillColor=#dae8fc;strokeColor=#6C8EBF;" parent="1" vertex="1">
          <mxGeometry x="952.66" y="308.78948833520724" width="94.39999999999999" height="90.08907333390991" as="geometry" />
        </mxCell>
        <mxCell id="QRiMbNRAXF-muY_U-p8k-61" value="" style="edgeStyle=orthogonalEdgeStyle;rounded=0;orthogonalLoop=1;jettySize=auto;html=1;fontSize=15;strokeWidth=2;strokeColor=default;" parent="1" source="QRiMbNRAXF-muY_U-p8k-58" target="QRiMbNRAXF-muY_U-p8k-60" edge="1">
          <mxGeometry relative="1" as="geometry" />
        </mxCell>
        <mxCell id="QRiMbNRAXF-muY_U-p8k-73" value="" style="edgeStyle=orthogonalEdgeStyle;rounded=0;orthogonalLoop=1;jettySize=auto;html=1;fontSize=15;fillColor=#dae8fc;strokeColor=#6c8ebf;strokeWidth=2;" parent="1" source="QRiMbNRAXF-muY_U-p8k-69" edge="1">
          <mxGeometry relative="1" as="geometry">
            <mxPoint x="999.86" y="280" as="targetPoint" />
            <Array as="points">
              <mxPoint x="1259.86" y="280" />
              <mxPoint x="999.86" y="280" />
            </Array>
          </mxGeometry>
        </mxCell>
        <mxCell id="QRiMbNRAXF-muY_U-p8k-69" value="i += 1" style="whiteSpace=wrap;html=1;fontSize=16;sketch=0;fontStyle=0;rounded=0;container=0;fillColor=#FFCC00;" parent="1" vertex="1">
          <mxGeometry x="1224.0599999999997" y="678.154689004238" width="70.8" height="47.2967635003027" as="geometry" />
        </mxCell>
        <mxCell id="QRiMbNRAXF-muY_U-p8k-75" value="key = n[i]" style="whiteSpace=wrap;html=1;rounded=0;fontSize=16;container=0;fillColor=#FFCC00;" parent="1" vertex="1">
          <mxGeometry x="929.0600000000001" y="432.6619641693334" width="141.6" height="28.15283541684685" as="geometry" />
        </mxCell>
        <mxCell id="QRiMbNRAXF-muY_U-p8k-122" style="edgeStyle=orthogonalEdgeStyle;rounded=0;orthogonalLoop=1;jettySize=auto;html=1;entryX=0.5;entryY=0;entryDx=0;entryDy=0;fontSize=15;strokeWidth=2;strokeColor=#6c8ebf;fillColor=#dae8fc;" parent="1" source="QRiMbNRAXF-muY_U-p8k-60" target="QRiMbNRAXF-muY_U-p8k-75" edge="1">
          <mxGeometry relative="1" as="geometry" />
        </mxCell>
        <mxCell id="QRiMbNRAXF-muY_U-p8k-150" value="&lt;font color=&quot;#6c8ebf&quot;&gt;true&lt;/font&gt;" style="edgeLabel;html=1;align=center;verticalAlign=middle;resizable=0;points=[];rounded=0;" parent="QRiMbNRAXF-muY_U-p8k-122" vertex="1" connectable="0">
          <mxGeometry x="0.0523" relative="1" as="geometry">
            <mxPoint y="-5" as="offset" />
          </mxGeometry>
        </mxCell>
        <mxCell id="QRiMbNRAXF-muY_U-p8k-76" value="j = i-1" style="whiteSpace=wrap;html=1;rounded=0;fontSize=16;container=0;fillColor=#FFCC00;" parent="1" vertex="1">
          <mxGeometry x="929.0600000000001" y="483.33706791965767" width="141.6" height="28.15283541684685" as="geometry" />
        </mxCell>
        <mxCell id="QRiMbNRAXF-muY_U-p8k-77" value="" style="edgeStyle=orthogonalEdgeStyle;rounded=0;orthogonalLoop=1;jettySize=auto;html=1;fontSize=15;strokeWidth=2;strokeColor=#6c8ebf;fillColor=#dae8fc;" parent="1" source="QRiMbNRAXF-muY_U-p8k-75" target="QRiMbNRAXF-muY_U-p8k-76" edge="1">
          <mxGeometry relative="1" as="geometry" />
        </mxCell>
        <mxCell id="QRiMbNRAXF-muY_U-p8k-78" value="j &amp;gt;= 0" style="rhombus;whiteSpace=wrap;html=1;fontSize=16;fontStyle=0;rounded=0;container=0;fillColor=#d5e8d4;strokeColor=#82b366;" parent="1" vertex="1">
          <mxGeometry x="952.66" y="550.9038729200901" width="94.39999999999999" height="90.08907333390991" as="geometry" />
        </mxCell>
        <mxCell id="QRiMbNRAXF-muY_U-p8k-95" value="" style="edgeStyle=orthogonalEdgeStyle;rounded=0;orthogonalLoop=1;jettySize=auto;html=1;fontSize=15;strokeWidth=2;strokeColor=#6c8ebf;fillColor=#dae8fc;" parent="1" source="QRiMbNRAXF-muY_U-p8k-76" target="QRiMbNRAXF-muY_U-p8k-78" edge="1">
          <mxGeometry relative="1" as="geometry" />
        </mxCell>
        <mxCell id="QRiMbNRAXF-muY_U-p8k-136" style="edgeStyle=orthogonalEdgeStyle;rounded=0;orthogonalLoop=1;jettySize=auto;html=1;fontSize=15;strokeWidth=2;strokeColor=#9673A6;fillColor=#e1d5e7;" parent="1" source="QRiMbNRAXF-muY_U-p8k-97" edge="1">
          <mxGeometry relative="1" as="geometry">
            <mxPoint x="784.4284423465948" y="714.7502756514139" as="targetPoint" />
          </mxGeometry>
        </mxCell>
        <mxCell id="QRiMbNRAXF-muY_U-p8k-148" value="false" style="edgeLabel;html=1;align=center;verticalAlign=middle;resizable=0;points=[];fontColor=#9673A6;rounded=0;" parent="QRiMbNRAXF-muY_U-p8k-136" vertex="1" connectable="0">
          <mxGeometry x="0.0035" relative="1" as="geometry">
            <mxPoint y="-1" as="offset" />
          </mxGeometry>
        </mxCell>
        <mxCell id="QRiMbNRAXF-muY_U-p8k-97" value="&lt;font style=&quot;font-size: 14px;&quot;&gt;n[j] &amp;gt; key&lt;/font&gt;" style="rhombus;whiteSpace=wrap;html=1;fontSize=16;fontStyle=0;rounded=0;container=0;fillColor=#e1d5e7;strokeColor=#9673a6;" parent="1" vertex="1">
          <mxGeometry x="961.5089201425681" y="678.151589609513" width="76.69999999999999" height="73.19737208380181" as="geometry" />
        </mxCell>
        <mxCell id="QRiMbNRAXF-muY_U-p8k-98" value="" style="edgeStyle=orthogonalEdgeStyle;rounded=0;orthogonalLoop=1;jettySize=auto;html=1;fontSize=15;strokeWidth=2;strokeColor=#82b366;fillColor=#d5e8d4;" parent="1" source="QRiMbNRAXF-muY_U-p8k-78" target="QRiMbNRAXF-muY_U-p8k-97" edge="1">
          <mxGeometry relative="1" as="geometry" />
        </mxCell>
        <mxCell id="QRiMbNRAXF-muY_U-p8k-152" value="&lt;font color=&quot;#82b366&quot;&gt;true&lt;/font&gt;" style="edgeLabel;html=1;align=center;verticalAlign=middle;resizable=0;points=[];rounded=0;" parent="QRiMbNRAXF-muY_U-p8k-98" vertex="1" connectable="0">
          <mxGeometry x="-0.0598" relative="1" as="geometry">
            <mxPoint y="1" as="offset" />
          </mxGeometry>
        </mxCell>
        <mxCell id="QRiMbNRAXF-muY_U-p8k-99" value="&lt;div style=&quot;font-size: 16px;&quot;&gt;n[j+1] = n[j]&lt;/div&gt;" style="whiteSpace=wrap;html=1;rounded=0;fontSize=16;container=0;fillColor=#FFCC00;" parent="1" vertex="1">
          <mxGeometry x="929.0600000000001" y="798.6488245883423" width="141.6" height="28.15283541684685" as="geometry" />
        </mxCell>
        <mxCell id="QRiMbNRAXF-muY_U-p8k-133" style="edgeStyle=orthogonalEdgeStyle;rounded=0;orthogonalLoop=1;jettySize=auto;html=1;entryX=0.5;entryY=0;entryDx=0;entryDy=0;fontSize=15;strokeWidth=2;strokeColor=#9673a6;fillColor=#e1d5e7;" parent="1" source="QRiMbNRAXF-muY_U-p8k-97" target="QRiMbNRAXF-muY_U-p8k-99" edge="1">
          <mxGeometry relative="1" as="geometry" />
        </mxCell>
        <mxCell id="QRiMbNRAXF-muY_U-p8k-149" value="&lt;font color=&quot;#9673a6&quot;&gt;true&lt;/font&gt;" style="edgeLabel;html=1;align=center;verticalAlign=middle;resizable=0;points=[];rounded=0;" parent="QRiMbNRAXF-muY_U-p8k-133" vertex="1" connectable="0">
          <mxGeometry x="-0.1507" relative="1" as="geometry">
            <mxPoint as="offset" />
          </mxGeometry>
        </mxCell>
        <mxCell id="QRiMbNRAXF-muY_U-p8k-108" style="edgeStyle=orthogonalEdgeStyle;rounded=0;orthogonalLoop=1;jettySize=auto;html=1;exitX=0.5;exitY=0;exitDx=0;exitDy=0;fontSize=15;strokeWidth=2;fillColor=#d5e8d4;strokeColor=#82b366;" parent="1" source="QRiMbNRAXF-muY_U-p8k-106" edge="1">
          <mxGeometry relative="1" as="geometry">
            <mxPoint x="999.86" y="534.0121716699821" as="targetPoint" />
            <Array as="points">
              <mxPoint x="1141.4599999999998" y="534.0121716699821" />
            </Array>
          </mxGeometry>
        </mxCell>
        <mxCell id="QRiMbNRAXF-muY_U-p8k-106" value="j -= 1" style="whiteSpace=wrap;html=1;rounded=0;fontSize=16;container=0;fillColor=#FFCC00;" parent="1" vertex="1">
          <mxGeometry x="1106.06" y="678.154689004238" width="70.8" height="47.2967635003027" as="geometry" />
        </mxCell>
        <mxCell id="QRiMbNRAXF-muY_U-p8k-107" style="edgeStyle=orthogonalEdgeStyle;rounded=0;orthogonalLoop=1;jettySize=auto;html=1;entryX=0.5;entryY=1;entryDx=0;entryDy=0;fontSize=15;strokeWidth=2;fillColor=#d5e8d4;strokeColor=#82b366;" parent="1" source="QRiMbNRAXF-muY_U-p8k-99" target="QRiMbNRAXF-muY_U-p8k-106" edge="1">
          <mxGeometry relative="1" as="geometry">
            <Array as="points">
              <mxPoint x="999.86" y="860.5850625054055" />
              <mxPoint x="1141.4599999999998" y="860.5850625054055" />
            </Array>
          </mxGeometry>
        </mxCell>
        <mxCell id="QRiMbNRAXF-muY_U-p8k-113" style="edgeStyle=orthogonalEdgeStyle;rounded=0;orthogonalLoop=1;jettySize=auto;html=1;entryX=0.5;entryY=1;entryDx=0;entryDy=0;exitX=1;exitY=0.5;exitDx=0;exitDy=0;fontSize=15;fillColor=#dae8fc;strokeColor=#6c8ebf;strokeWidth=2;" parent="1" source="QRiMbNRAXF-muY_U-p8k-111" target="QRiMbNRAXF-muY_U-p8k-69" edge="1">
          <mxGeometry relative="1" as="geometry">
            <mxPoint x="1035.260481632653" y="982.2053115061838" as="sourcePoint" />
            <mxPoint x="1330.2481999999998" y="693.9202768376723" as="targetPoint" />
            <Array as="points">
              <mxPoint x="1259.5657123591175" y="903.356709707514" />
            </Array>
          </mxGeometry>
        </mxCell>
        <mxCell id="QRiMbNRAXF-muY_U-p8k-111" value="n[j+1] = key" style="whiteSpace=wrap;html=1;fontSize=16;fontStyle=0;rounded=0;container=0;fillColor=#FFCC00;" parent="1" vertex="1">
          <mxGeometry x="929.0611366920335" y="887.084887402364" width="141.59772661593297" height="32.54364461030002" as="geometry" />
        </mxCell>
        <mxCell id="QRiMbNRAXF-muY_U-p8k-93" value="" style="edgeStyle=orthogonalEdgeStyle;rounded=0;orthogonalLoop=1;jettySize=auto;html=1;entryX=0;entryY=0.5;entryDx=0;entryDy=0;exitX=0;exitY=0.5;exitDx=0;exitDy=0;fontSize=15;strokeWidth=2;strokeColor=#82b366;fillColor=#d5e8d4;" parent="1" source="QRiMbNRAXF-muY_U-p8k-78" target="QRiMbNRAXF-muY_U-p8k-111" edge="1">
          <mxGeometry relative="1" as="geometry">
            <mxPoint x="952.6600000000005" y="601.5789766704142" as="sourcePoint" />
            <mxPoint x="1035.2599999999998" y="1023.8715079231172" as="targetPoint" />
            <Array as="points">
              <mxPoint x="787.8385184471631" y="596.361662217017" />
              <mxPoint x="787.8385184471631" y="903.356709707514" />
            </Array>
          </mxGeometry>
        </mxCell>
        <mxCell id="QRiMbNRAXF-muY_U-p8k-147" value="false" style="edgeLabel;html=1;align=center;verticalAlign=middle;resizable=0;points=[];fontColor=#82B366;rounded=0;" parent="QRiMbNRAXF-muY_U-p8k-93" vertex="1" connectable="0">
          <mxGeometry x="-0.7285" y="-1" relative="1" as="geometry">
            <mxPoint as="offset" />
          </mxGeometry>
        </mxCell>
        <mxCell id="QRiMbNRAXF-muY_U-p8k-117" value="" style="edgeStyle=orthogonalEdgeStyle;rounded=0;orthogonalLoop=1;jettySize=auto;html=1;fontSize=15;strokeWidth=2;strokeColor=default;" parent="1" source="QRiMbNRAXF-muY_U-p8k-116" target="QRiMbNRAXF-muY_U-p8k-55" edge="1">
          <mxGeometry relative="1" as="geometry" />
        </mxCell>
        <mxCell id="QRiMbNRAXF-muY_U-p8k-114" style="edgeStyle=orthogonalEdgeStyle;rounded=0;orthogonalLoop=1;jettySize=auto;html=1;entryX=0.5;entryY=0;entryDx=0;entryDy=0;fontSize=15;strokeWidth=2;strokeColor=#6c8ebf;fillColor=#dae8fc;" parent="1" source="QRiMbNRAXF-muY_U-p8k-60" target="QRiMbNRAXF-muY_U-p8k-116" edge="1">
          <mxGeometry relative="1" as="geometry">
            <mxPoint x="999.86" y="708.5597512544324" as="targetPoint" />
            <Array as="points">
              <mxPoint x="704.86" y="353.3691157934436" />
              <mxPoint x="704.86" y="952.172176622964" />
              <mxPoint x="1000.3999287159234" y="952.172176622964" />
            </Array>
          </mxGeometry>
        </mxCell>
        <mxCell id="QRiMbNRAXF-muY_U-p8k-151" value="&lt;font color=&quot;#6c8ebf&quot;&gt;false&lt;/font&gt;" style="edgeLabel;html=1;align=center;verticalAlign=middle;resizable=0;points=[];rounded=0;" parent="QRiMbNRAXF-muY_U-p8k-114" vertex="1" connectable="0">
          <mxGeometry x="-0.7882" y="1" relative="1" as="geometry">
            <mxPoint y="-1" as="offset" />
          </mxGeometry>
        </mxCell>
        <mxCell id="QRiMbNRAXF-muY_U-p8k-58" value="n" style="shape=parallelogram;perimeter=parallelogramPerimeter;whiteSpace=wrap;html=1;fixedSize=1;fontSize=16;fontStyle=0;rounded=0;container=0;fillColor=#FFCC00;" parent="1" vertex="1">
          <mxGeometry x="929.0600000000001" y="208.7004150012973" width="141.6" height="45.044536666954954" as="geometry" />
        </mxCell>
        <mxCell id="QRiMbNRAXF-muY_U-p8k-138" value="&lt;font style=&quot;font-size: 12px;&quot;&gt;read&lt;/font&gt;" style="whiteSpace=wrap;html=1;fontSize=16;container=0;rounded=0;" parent="1" vertex="1">
          <mxGeometry x="950.0000000000001" y="208.7004150012973" width="26.4" height="16.42" as="geometry" />
        </mxCell>
        <mxCell id="QRiMbNRAXF-muY_U-p8k-116" value="n" style="shape=parallelogram;perimeter=parallelogramPerimeter;whiteSpace=wrap;html=1;fixedSize=1;fontSize=16;fontStyle=0;rounded=0;container=0;fillColor=#FFCC00;" parent="1" vertex="1">
          <mxGeometry x="929.0600000000001" y="984.7142715359017" width="141.6" height="45.044536666954954" as="geometry" />
        </mxCell>
        <mxCell id="QRiMbNRAXF-muY_U-p8k-140" value="&lt;font style=&quot;font-size: 12px;&quot;&gt;return&lt;/font&gt;" style="whiteSpace=wrap;html=1;fontSize=16;container=0;rounded=0;" parent="1" vertex="1">
          <mxGeometry x="950.0000000000001" y="984.7142715359017" width="36.4" height="20" as="geometry" />
        </mxCell>
      </root>
    </mxGraphModel>
  </diagram>
</mxfile>
